<?xml version="1.0" encoding="UTF-8"?>
<svg width="61px" height="54px" viewBox="0 0 61 54" version="1.1" xmlns="http://www.w3.org/2000/svg" xmlns:xlink="http://www.w3.org/1999/xlink">
    <!-- Generator: Sketch 48.2 (47327) - http://www.bohemiancoding.com/sketch -->
    <title>leaf copy</title>
    <desc>Created with Sketch.</desc>
    <defs></defs>
    <g id="Page-1" stroke="none" stroke-width="1" fill="none" fill-rule="evenodd">
        <g id="leaf-copy">
            <circle id="Oval-3" stroke="#000000" stroke-width="3" cx="30" cy="29" r="23"></circle>
            <path d="M30,39 C32.6666667,33.1797017 34,26.6797017 34,19.5 C34,12.3202983 32.6666667,5.82029825 30,0 C27.3333333,5.82029825 26,12.3202983 26,19.5 C26,26.6797017 27.3333333,33.1797017 30,39 Z" id="Oval-4" fill="#000000"></path>
            <path d="M15.3341457,45.1552135 C17.6344627,40.1345145 18.7846212,34.5274919 18.7846212,28.3341457 C18.7846212,22.1407996 17.6344627,16.5337769 15.3341457,11.5130779 C13.0338287,16.5337769 11.8836703,22.1407996 11.8836703,28.3341457 C11.8836703,34.5274919 13.0338287,40.1345145 15.3341457,45.1552135 Z" id="Oval-4-Copy-2" fill="#000000" transform="translate(15.334146, 28.334146) scale(-1, 1) rotate(-315.000000) translate(-15.334146, -28.334146) "></path>
            <path d="M44.3341457,45.1552135 C46.6344627,40.1345145 47.7846212,34.5274919 47.7846212,28.3341457 C47.7846212,22.1407996 46.6344627,16.5337769 44.3341457,11.5130779 C42.0338287,16.5337769 40.8836703,22.1407996 40.8836703,28.3341457 C40.8836703,34.5274919 42.0338287,40.1345145 44.3341457,45.1552135 Z" id="Oval-4-Copy-4" fill="#000000" transform="translate(44.334146, 28.334146) rotate(-315.000000) translate(-44.334146, -28.334146) "></path>
            <path d="M13.2430047,54.9595185 C15.0540139,51.0067884 15.9595185,46.5924535 15.9595185,41.7165138 C15.9595185,36.8405741 15.0540139,32.4262392 13.2430047,28.4735091 C11.4319955,32.4262392 10.5264909,36.8405741 10.5264909,41.7165138 C10.5264909,46.5924535 11.4319955,51.0067884 13.2430047,54.9595185 Z" id="Oval-4-Copy-3" fill="#000000" transform="translate(13.243005, 41.716514) scale(-1, 1) rotate(-270.000000) translate(-13.243005, -41.716514) "></path>
            <path d="M47.2430047,54.9595185 C49.0540139,51.0067884 49.9595185,46.5924535 49.9595185,41.7165138 C49.9595185,36.8405741 49.0540139,32.4262392 47.2430047,28.4735091 C45.4319955,32.4262392 44.5264909,36.8405741 44.5264909,41.7165138 C44.5264909,46.5924535 45.4319955,51.0067884 47.2430047,54.9595185 Z" id="Oval-4-Copy-5" fill="#000000" transform="translate(47.243005, 41.716514) rotate(-270.000000) translate(-47.243005, -41.716514) "></path>
        </g>
    </g>
</svg>